<svg t="1660730157956" class="icon" viewBox="0 0 1024 1024" version="1.1" xmlns="http://www.w3.org/2000/svg" p-id="7537" width="200" height="200"><path d="M382.624 712.92v-49.408H282.136V622.32L388.656 466.4h39.52v155.752h30.48v41.368h-30.48v49.408h-45.552z m0-90.768V538.248l-56.44 83.896h56.44zM560.648 466.4c23.784 0 42.368 8.488 55.768 25.456 15.968 20.096 23.952 53.424 23.952 99.984 0 46.456-8.04 79.832-24.12 100.152-13.288 16.752-31.824 25.128-55.6 25.128-23.896 0-43.16-9.176-57.776-27.544-14.632-18.368-21.944-51.112-21.944-98.224 0-46.224 8.04-79.496 24.12-99.816 13.28-16.76 31.816-25.136 55.6-25.136z m0 39.024a23.52 23.52 0 0 0-15.24 5.44c-4.472 3.632-7.928 10.136-10.384 19.512-3.24 12.168-4.856 32.656-4.856 61.464s1.456 48.6 4.36 59.376c2.896 10.776 6.552 17.944 10.968 21.512 4.408 3.576 9.464 5.36 15.16 5.36s10.776-1.816 15.24-5.448c4.464-3.624 7.92-10.128 10.384-19.504 3.232-12.056 4.848-32.496 4.848-61.296s-1.456-48.592-4.352-59.368c-2.904-10.776-6.56-17.976-10.968-21.608a23.216 23.216 0 0 0-15.16-5.44zM670.176 647.776l45.544-5.52c1.456 11.608 5.36 20.488 11.728 26.624s14.072 9.208 23.112 9.208c9.72 0 17.888-3.68 24.536-11.056 6.64-7.368 9.96-17.304 9.96-29.808 0-11.832-3.176-21.208-9.544-28.144-6.36-6.92-14.128-10.384-23.272-10.384-6.032 0-13.232 1.168-21.608 3.512l5.192-38.352c12.728 0.336 22.44-2.424 29.144-8.288 6.696-5.856 10.048-13.648 10.048-23.36 0-8.264-2.464-14.848-7.368-19.76-4.912-4.912-11.448-7.368-19.592-7.368-8.04 0-14.904 2.792-20.6 8.376-5.696 5.584-9.16 13.736-10.384 24.456l-43.376-7.376c3.016-14.84 7.56-26.704 13.648-35.584 6.088-8.872 14.568-15.848 25.456-20.936 10.888-5.08 23.088-7.624 36.592-7.624 23.112 0 41.648 7.368 55.6 22.112 11.504 12.056 17.248 25.68 17.248 40.856 0 21.552-11.784 38.752-35.336 51.584 14.072 3.016 25.312 9.776 33.744 20.264s12.648 23.168 12.648 38.016c0 21.544-7.872 39.912-23.616 55.104-15.744 15.176-35.336 22.776-58.784 22.776-22.216 0-40.64-6.392-55.264-19.176-14.624-12.776-23.112-29.496-25.456-50.152z" p-id="7538"></path><path d="M893.232 249.024c0-13.904-13.128-25.176-29.32-25.176H160.096c-16.208 0-29.328 11.272-29.328 25.176v528.648c0 13.904 13.128 25.16 29.328 25.16h187.808v-34.816h-178.4V258.68h685V442.8h38.736V249.024z" p-id="7539"></path></svg>
<svg t="1660730260275" class="icon" viewBox="0 0 1024 1024" version="1.1" xmlns="http://www.w3.org/2000/svg" p-id="8771" width="200" height="200"><path d="M382.624 712.92v-49.408H282.136V622.32L388.656 466.4h39.52v155.752h30.48v41.368h-30.48v49.408h-45.552z m0-90.768V538.248l-56.44 83.896h56.44zM560.648 466.4c23.784 0 42.368 8.488 55.768 25.456 15.968 20.096 23.952 53.424 23.952 99.984 0 46.456-8.04 79.832-24.12 100.152-13.288 16.752-31.824 25.128-55.6 25.128-23.896 0-43.16-9.176-57.776-27.544-14.632-18.368-21.944-51.112-21.944-98.224 0-46.224 8.04-79.496 24.12-99.816 13.28-16.76 31.816-25.136 55.6-25.136z m0 39.024a23.52 23.52 0 0 0-15.24 5.44c-4.472 3.632-7.928 10.136-10.384 19.512-3.24 12.168-4.856 32.656-4.856 61.464s1.456 48.6 4.36 59.376c2.896 10.776 6.552 17.944 10.968 21.512 4.408 3.576 9.464 5.36 15.16 5.36s10.776-1.816 15.24-5.448c4.464-3.624 7.92-10.128 10.384-19.504 3.232-12.056 4.848-32.496 4.848-61.296s-1.456-48.592-4.352-59.368c-2.904-10.776-6.56-17.976-10.968-21.608a23.216 23.216 0 0 0-15.16-5.44zM670.176 647.776l45.544-5.52c1.456 11.608 5.36 20.488 11.728 26.624s14.072 9.208 23.112 9.208c9.72 0 17.888-3.68 24.536-11.056 6.64-7.368 9.96-17.304 9.96-29.808 0-11.832-3.176-21.208-9.544-28.144-6.36-6.92-14.128-10.384-23.272-10.384-6.032 0-13.232 1.168-21.608 3.512l5.192-38.352c12.728 0.336 22.44-2.424 29.144-8.288 6.696-5.856 10.048-13.648 10.048-23.36 0-8.264-2.464-14.848-7.368-19.76-4.912-4.912-11.448-7.368-19.592-7.368-8.04 0-14.904 2.792-20.6 8.376-5.696 5.584-9.16 13.736-10.384 24.456l-43.376-7.376c3.016-14.84 7.56-26.704 13.648-35.584 6.088-8.872 14.568-15.848 25.456-20.936 10.888-5.08 23.088-7.624 36.592-7.624 23.112 0 41.648 7.368 55.6 22.112 11.504 12.056 17.248 25.68 17.248 40.856 0 21.552-11.784 38.752-35.336 51.584 14.072 3.016 25.312 9.776 33.744 20.264s12.648 23.168 12.648 38.016c0 21.544-7.872 39.912-23.616 55.104-15.744 15.176-35.336 22.776-58.784 22.776-22.216 0-40.64-6.392-55.264-19.176-14.624-12.776-23.112-29.496-25.456-50.152z" p-id="8772"></path><path d="M893.232 249.024c0-13.904-13.128-25.176-29.32-25.176H160.096c-16.208 0-29.328 11.272-29.328 25.176v528.648c0 13.904 13.128 25.16 29.328 25.16h187.808v-34.816h-178.4V258.68h685V442.8h38.736V249.024z" p-id="8773"></path></svg>
