<svg t="1660730342847" class="icon" viewBox="0 0 1024 1024" version="1.1" xmlns="http://www.w3.org/2000/svg" p-id="10287" width="200" height="200"><path d="M682.666667 128H341.333333c-47.061333 0-85.333333 38.272-85.333333 85.333333v597.333334c0 47.061333 38.272 85.333333 85.333333 85.333333h341.333334c47.061333 0 85.333333-38.272 85.333333-85.333333V213.333333c0-47.061333-38.272-85.333333-85.333333-85.333333zM85.333333 298.666667v426.666666c0 47.061333 38.272 85.333333 85.333334 85.333334V213.333333c-47.061333 0-85.333333 38.272-85.333334 85.333334z m768-85.333334v597.333334c47.061333 0 85.333333-38.272 85.333334-85.333334V298.666667c0-47.061333-38.272-85.333333-85.333334-85.333334z" p-id="10288"></path></svg>
