<svg t="1661744091494" class="icon" viewBox="0 0 1024 1024" version="1.1" xmlns="http://www.w3.org/2000/svg" p-id="3212" width="200" height="200"><path d="M656 240V16H144v992h736V240z" fill="#EDF2F8" p-id="3213"></path><path d="M656 16v224h224z" fill="#FFFFFF" p-id="3214"></path><path d="M895.904 239.824a15.536 15.536 0 0 0-4.464-10.48L666.656 4.56a15.376 15.376 0 0 0-10.336-4.432L656 0H160a32 32 0 0 0-32 32v960a32 32 0 0 0 32 32h704a32 32 0 0 0 32-32V240l-0.096-0.176zM672 54.096L841.904 224H672V54.096zM864 992H160V32h480v224h224v736zM611.216 468.624L447.744 632.112l-67.472-67.488a16.752 16.752 0 0 0-23.664 23.664l78.576 78.56c3.456 3.456 8.016 4.96 12.544 4.752a16.48 16.48 0 0 0 12.544-4.752l174.576-174.56c6.528-6.528 6.528-17.12 0-23.664s-17.104-6.528-23.632 0z" fill="#8592A5" p-id="3215"></path></svg>
