<svg t="1660730143877" class="icon" viewBox="0 0 1024 1024" version="1.1" xmlns="http://www.w3.org/2000/svg" p-id="7398" width="200" height="200"><path d="M412.127511 478.794444H210.233636c-36.735885 0-66.513441-29.879884-66.51344-66.615769V210.182472c0-36.735885 29.879884-66.615769 66.51344-66.615769h201.893875c36.735885 0 66.513441 29.879884 66.51344 66.615769v201.996203c0.102328 36.735885-29.777556 66.615769-66.51344 66.615769zM210.233636 199.131008c-6.139702 0-11.051464 5.01409-11.051464 11.051464v201.996203c0 6.139702 5.01409 11.051464 11.051464 11.051464h201.893875c6.139702 0 11.051464-5.01409 11.051464-11.051464V210.182472c0-6.139702-5.01409-11.051464-11.051464-11.051464H210.233636zM412.127511 880.330968H210.233636c-36.735885 0-66.513441-29.879884-66.51344-66.615769V611.821325c0-36.735885 29.879884-66.615769 66.51344-66.615769h201.893875c36.735885 0 66.513441 29.879884 66.51344 66.615769v201.996203c0.102328 36.735885-29.777556 66.513441-66.51344 66.51344zM210.233636 600.667533c-6.139702 0-11.051464 5.01409-11.051464 11.051464v201.996202c0 6.139702 5.01409 11.051464 11.051464 11.051464h201.893875c6.139702 0 11.051464-5.01409 11.051464-11.051464V611.821325c0-6.139702-5.01409-11.051464-11.051464-11.051464H210.233636zM813.868692 880.330968H611.872489c-36.735885 0-66.513441-29.879884-66.51344-66.615769V611.821325c0-36.735885 29.879884-66.615769 66.51344-66.615769h201.996203c36.735885 0 66.513441 29.879884 66.513441 66.615769v201.996203c0 36.735885-29.879884 66.513441-66.513441 66.51344zM611.872489 600.667533c-6.139702 0-11.051464 5.01409-11.051464 11.051464v201.996202c0 6.139702 5.01409 11.051464 11.051464 11.051464h201.996203c6.139702 0 11.051464-5.01409 11.051464-11.051464V611.821325c0-6.139702-5.01409-11.051464-11.051464-11.051464H611.872489zM852.651144 218.982712H573.090037c-15.349256 0-27.730988-12.381733-27.730988-27.730988s12.381733-27.730988 27.730988-27.730989h279.561107c15.349256 0 27.730988 12.381733 27.730989 27.730989S868.0004 218.982712 852.651144 218.982712zM852.651144 338.911562H573.090037c-15.349256 0-27.730988-12.381733-27.730988-27.730988 0-15.349256 12.381733-27.730988 27.730988-27.730989h279.561107c15.349256 0 27.730988 12.381733 27.730989 27.730989 0 15.349256-12.381733 27.730988-27.730989 27.730988zM852.651144 458.840412H573.090037c-15.349256 0-27.730988-12.381733-27.730988-27.730989 0-15.349256 12.381733-27.730988 27.730988-27.730988h279.561107c15.349256 0 27.730988 12.381733 27.730989 27.730988 0 15.349256-12.381733 27.730988-27.730989 27.730989z" p-id="7399"></path></svg>
