<svg t="1660729650628" class="icon" viewBox="0 0 1024 1024" version="1.1" xmlns="http://www.w3.org/2000/svg" p-id="2205" width="200" height="200"><path d="M715.639468 326.658781c-42.671868 0-77.384461-34.712593-77.384461-77.383438L638.255007 60.287061 201.109856 60.287061c-39.194674 0-71.067592 31.873941-71.067592 71.067592l0 756.517993c0 39.193651 31.872918 71.03894 71.067592 71.03894l622.197798 0c39.193651 0 71.066569-31.873941 71.066569-71.03894L894.374222 326.658781 715.639468 326.658781 715.639468 326.658781zM720.342584 760.570285 297.530882 760.570285c-10.304693 0-18.662035-8.358365-18.662035-18.661012 0-10.298554 8.357342-18.662035 18.662035-18.662035l422.811702 0c10.302647 0 18.662035 8.363482 18.662035 18.662035C739.005642 752.21192 730.646254 760.570285 720.342584 760.570285L720.342584 760.570285zM720.342584 624.26283 297.530882 624.26283c-10.304693 0-18.662035-8.362458-18.662035-18.661012 0-10.302647 8.357342-18.661012 18.662035-18.661012l422.811702 0c10.302647 0 18.662035 8.358365 18.662035 18.661012C739.005642 615.900372 730.646254 624.26283 720.342584 624.26283L720.342584 624.26283zM720.342584 487.924675 297.530882 487.924675c-10.304693 0-18.662035-8.357342-18.662035-18.663058 0-10.29753 8.357342-18.661012 18.662035-18.661012l422.811702 0c10.302647 0 18.662035 8.363482 18.662035 18.661012C739.005642 479.567333 730.646254 487.924675 720.342584 487.924675L720.342584 487.924675zM715.639468 285.999756l142.627395 0L678.915056 99.380428l0 149.893892C678.886403 269.526573 695.383122 285.999756 715.639468 285.999756L715.639468 285.999756zM715.639468 285.999756" p-id="2206"></path></svg>
