<svg t="1660730001017" class="icon" viewBox="0 0 1024 1024" version="1.1" xmlns="http://www.w3.org/2000/svg" p-id="5899" width="200" height="200"><path d="M439.327448 917.258927c-24.148115 0-44.980558-8.657586-60.242879-25.036387-10.11075-10.838356-22.178156-30.269826-22.178156-61.207903 0-59.1878 37.622634-193.822468 71.207108-304.752134-15.71055 6.734701-32.817981 14.190868-48.63189 21.194711L202.435026 625.873859l130.162606-143.358772c39.674461-43.696247 75.555344-74.301734 109.694476-93.566397 36.571648-20.635959 68.2097-30.666888 96.721402-30.666888l1.030519 0 1.028472 0.052191c1.117504 0.056285 2.282082 0.089032 3.475315 0.125873 12.881996 0.393992 36.859211 1.126714 54.837516 20.518273 11.690811 12.60876 17.254793 29.243401 16.546632 49.458761-0.035817 8.786528-1.163555 24.879814-37.098676 145.172158-28.517842 95.774798-42.681079 150.884527-49.608171 182.556349 18.087805-7.987288 39.14641-17.637528 57.995591-26.560163l234.344267-110.922503L632.793788 796.406808c-52.719171 49.633755-90.968098 80.972987-116.930622 95.808569C486.372114 909.066968 461.33675 917.258927 439.327448 917.258927zM576.715965 318.54901c-25.343394 0-47.805019-9.523344-64.956453-27.539514-16.617243-17.431834-25.410935-40.629252-25.410935-67.065589 0-31.251224 10.825052-59.522437 31.303415-81.756877 21.342074-23.186161 48.606306-35.44698 78.837245-35.44698 25.580812 0 48.160123 9.268529 65.294161 26.801675 16.876152 17.309031 25.779343 40.011145 25.779343 65.685082 0 31.131491-10.834262 58.817345-32.202944 82.286975C627.487691 312.125409 597.208655 318.54901 576.715965 318.54901z" p-id="5900"></path></svg>
