<svg t="1660730234413" class="icon" viewBox="0 0 1024 1024" version="1.1" xmlns="http://www.w3.org/2000/svg" p-id="8632" width="200" height="200"><path d="M512 597.333333a42.666667 42.666667 0 0 0-42.666667 42.666667v85.333333a42.666667 42.666667 0 0 0 85.333334 0v-85.333333a42.666667 42.666667 0 0 0-42.666667-42.666667z m16.213333-124.586666a42.666667 42.666667 0 0 0-24.746666-3.413334l-7.68 2.56-7.68 3.84-6.4 5.12A42.666667 42.666667 0 0 0 469.333333 512a42.666667 42.666667 0 0 0 12.373334 30.293333 42.666667 42.666667 0 0 0 14.08 8.96 35.84 35.84 0 0 0 16.213333 3.413334 42.666667 42.666667 0 0 0 30.293333-12.373334A42.666667 42.666667 0 0 0 554.666667 512a42.666667 42.666667 0 0 0-12.373334-30.293333 49.066667 49.066667 0 0 0-14.08-8.96zM853.333333 381.44a55.893333 55.893333 0 0 0-2.56-11.52v-3.84a45.653333 45.653333 0 0 0-8.106666-11.946667l-256-256a45.653333 45.653333 0 0 0-11.946667-8.106666h-4.266667a46.933333 46.933333 0 0 0-13.226666-4.693334H298.666667a128 128 0 0 0-128 128v597.333334a128 128 0 0 0 128 128h426.666666a128 128 0 0 0 128-128V384v-2.56z m-256-150.613333L707.84 341.333333H640a42.666667 42.666667 0 0 1-42.666667-42.666666zM768 810.666667a42.666667 42.666667 0 0 1-42.666667 42.666666H298.666667a42.666667 42.666667 0 0 1-42.666667-42.666666V213.333333a42.666667 42.666667 0 0 1 42.666667-42.666666h213.333333v128a128 128 0 0 0 128 128h128z" p-id="8633"></path></svg>
