<svg t="1660729921364" class="icon" viewBox="0 0 1024 1024" version="1.1" xmlns="http://www.w3.org/2000/svg" p-id="5078" width="200" height="200"><path d="M853.333333 213.333333 170.666667 213.333333C123.733333 213.333333 85.333333 251.733333 85.333333 298.666667l0 426.666667c0 46.933333 38.4 85.333333 85.333333 85.333333l682.666667 0c46.933333 0 85.333333-38.4 85.333333-85.333333L938.666667 298.666667C938.666667 251.733333 900.266667 213.333333 853.333333 213.333333zM469.333333 341.333333l85.333333 0 0 85.333333-85.333333 0L469.333333 341.333333zM469.333333 469.333333l85.333333 0 0 85.333333-85.333333 0L469.333333 469.333333zM341.333333 341.333333l85.333333 0 0 85.333333L341.333333 426.666667 341.333333 341.333333zM341.333333 469.333333l85.333333 0 0 85.333333L341.333333 554.666667 341.333333 469.333333zM298.666667 554.666667 213.333333 554.666667l0-85.333333 85.333333 0L298.666667 554.666667zM298.666667 426.666667 213.333333 426.666667 213.333333 341.333333l85.333333 0L298.666667 426.666667zM682.666667 725.333333 341.333333 725.333333l0-85.333333 341.333333 0L682.666667 725.333333zM682.666667 554.666667l-85.333333 0 0-85.333333 85.333333 0L682.666667 554.666667zM682.666667 426.666667l-85.333333 0L597.333333 341.333333l85.333333 0L682.666667 426.666667zM810.666667 554.666667l-85.333333 0 0-85.333333 85.333333 0L810.666667 554.666667zM810.666667 426.666667l-85.333333 0L725.333333 341.333333l85.333333 0L810.666667 426.666667z" p-id="5079"></path></svg>
