<svg t="1660729874405" class="icon" viewBox="0 0 1024 1024" version="1.1" xmlns="http://www.w3.org/2000/svg" p-id="4528" width="200" height="200"><path d="M800 344h-184a16 16 0 0 1-16-16v-200a16 16 0 0 1 32 0v184h168a16 16 0 0 1 0 32zM374.272 376a16 16 0 0 1-13.376-24.768l104.76-160a16.008 16.008 0 0 1 26.776 17.528l-104.76 160a16 16 0 0 1-13.4 7.24z" fill="#231F20" p-id="4529"></path><path d="M479.064 376a15.976 15.976 0 0 1-13.4-7.232l-104.76-160a16 16 0 0 1 26.776-17.528l104.76 160a16 16 0 0 1-13.376 24.76zM728 776h-384a16 16 0 0 1-16-16v-336a16 16 0 0 1 16-16h384a16 16 0 0 1 16 16v336a16 16 0 0 1-16 16z m-368-32h352v-304h-352v304z" fill="#231F20" p-id="4530"></path><path d="M728 552h-384a16 16 0 0 1 0-32h384a16 16 0 0 1 0 32zM728 664h-384a16 16 0 0 1 0-32h384a16 16 0 0 1 0 32z" fill="#231F20" p-id="4531"></path><path d="M544 768a16 16 0 0 1-16-16v-328a16 16 0 0 1 32 0v328a16 16 0 0 1-16 16z" fill="#231F20" p-id="4532"></path><path d="M784.04 872h-0.072l-496-0.752c-30.856-0.048-55.968-25.192-55.968-56.048v-671.152c0-30.88 25.12-56 56-56h310.072c24.168 0 54.864 13.288 71.4 30.896l142.12 151.336c16.192 17.256 28.408 48.104 28.408 71.76v474.008c0 14.928-5.84 28.984-16.44 39.568a55.576 55.576 0 0 1-39.52 16.384z m-0.04-47.952c2.816 0 4.768-1.52 5.648-2.4s2.352-2.776 2.352-5.6v-474.008c0-11.56-7.488-30.472-15.4-38.904l-142.12-151.336v-0.008c-7.464-7.952-31.576-15.792-42.48-15.792h-304c-4.336 0-8 3.704-8 8.04v671.152c0 4.352 3.64 8.84 8 8.848l496 0.008z" fill="#231F20" p-id="4533"></path></svg>
