<svg t="1661676721347" class="icon" viewBox="0 0 1024 1024" version="1.1" xmlns="http://www.w3.org/2000/svg" p-id="2616" width="200" height="200"><path d="M914.288 420.576l0 109.728q0 22.848-16 38.848t-38.848 16l-237.728 0 0 237.728q0 22.848-16 38.848t-38.848 16l-109.728 0q-22.848 0-38.848-16t-16-38.848l0-237.728-237.728 0q-22.848 0-38.848-16t-16-38.848l0-109.728q0-22.848 16-38.848t38.848-16l237.728 0 0-237.728q0-22.848 16-38.848t38.848-16l109.728 0q22.848 0 38.848 16t16 38.848l0 237.728 237.728 0q22.848 0 38.848 16t16 38.848z" fill="#13227a" p-id="2617"></path></svg>
