<svg t="1660729705056" class="icon" viewBox="0 0 1024 1024" version="1.1" xmlns="http://www.w3.org/2000/svg" p-id="2885" width="200" height="200"><path d="M755.712 204.8H268.288c-34.816 0-63.488 28.672-63.488 63.488v487.424c0 34.816 28.672 63.488 63.488 63.488h487.424c34.816 0 63.488-28.672 63.488-63.488V268.288c0-34.816-28.672-63.488-63.488-63.488z m-270.336 75.776c0-8.192 8.192-14.336 16.384-14.336h239.616c8.192 0 14.336 8.192 14.336 16.384v30.72c0 8.192-8.192 14.336-16.384 14.336H499.712c-8.192 0-14.336-8.192-14.336-16.384v-30.72z m-81.92-14.336c17.408 0 30.72 13.312 30.72 30.72s-13.312 30.72-30.72 30.72-30.72-13.312-30.72-30.72 13.312-30.72 30.72-30.72zM296.96 266.24c17.408 0 30.72 13.312 30.72 30.72s-13.312 30.72-30.72 30.72-30.72-13.312-30.72-30.72 13.312-30.72 30.72-30.72z m460.8 477.184c0 8.192-8.192 14.336-16.384 14.336h-460.8c-8.192 0-14.336-8.192-14.336-16.384v-337.92c0-8.192 8.192-14.336 16.384-14.336h460.8c8.192 0 14.336 8.192 14.336 16.384v337.92z m-61.44-207.872c0 11.264-9.216 20.48-20.48 20.48h-77.824c-11.264 0-20.48-9.216-20.48-20.48v-30.72c0-11.264 9.216-20.48 20.48-20.48H675.84c11.264 0 20.48 9.216 20.48 20.48v30.72z m0 112.64c0 11.264-9.216 20.48-20.48 20.48h-77.824c-11.264 0-20.48-9.216-20.48-20.48v-30.72c0-11.264 9.216-20.48 20.48-20.48H675.84c11.264 0 20.48 9.216 20.48 20.48v30.72z m-194.56-163.84H344.064c-8.192 0-16.384 6.144-16.384 14.336v153.6c0 8.192 6.144 16.384 14.336 16.384h157.696c8.192 0 16.384-6.144 16.384-14.336v-153.6c0-8.192-6.144-16.384-14.336-16.384z m-40.96 152.576h-76.8c-8.192 0-15.36-9.216-15.36-18.432 0-13.312 14.336-21.504 28.672-28.672 10.24-4.096 11.264-8.192 11.264-13.312s-3.072-8.192-6.144-11.264c-6.144-5.12-9.216-13.312-9.216-22.528 0-17.408 10.24-31.744 28.672-31.744 17.408 0 28.672 14.336 28.672 31.744 0 9.216-3.072 17.408-9.216 22.528-3.072 3.072-6.144 7.168-6.144 11.264s1.024 8.192 11.264 12.288c14.336 6.144 28.672 15.36 28.672 28.672 1.024 10.24-6.144 19.456-14.336 19.456z" p-id="2886"></path></svg>
