<svg t="1660729798798" class="icon" viewBox="0 0 1024 1024" version="1.1" xmlns="http://www.w3.org/2000/svg" p-id="3699" width="200" height="200"><path d="M264.875 469.333a106.667 106.667 0 0 1 195.584 0h392.874a42.667 42.667 0 0 1 0 85.334H460.46a106.667 106.667 0 0 1-195.584 0h-94.208a42.667 42.667 0 0 1 0-85.334h94.208z m97.792 85.334a42.667 42.667 0 1 0 0-85.334 42.667 42.667 0 0 0 0 85.334zM759.125 192h94.208a42.667 42.667 0 0 1 0 85.333h-94.208a106.667 106.667 0 0 1-195.584 0H170.667a42.667 42.667 0 1 1 0-85.333H563.54a106.667 106.667 0 0 1 195.584 0z m-97.792 85.333a42.667 42.667 0 1 0 0-85.333 42.667 42.667 0 0 0 0 85.333z m97.792 469.334h94.208a42.667 42.667 0 0 1 0 85.333h-94.208a106.667 106.667 0 0 1-195.584 0H170.667a42.667 42.667 0 0 1 0-85.333H563.54a106.667 106.667 0 0 1 195.584 0zM661.333 832a42.667 42.667 0 1 0 0-85.333 42.667 42.667 0 0 0 0 85.333z" p-id="3700"></path></svg>
