<svg t="1660729738734" class="icon" viewBox="0 0 1024 1024" version="1.1" xmlns="http://www.w3.org/2000/svg" p-id="3024" width="200" height="200"><path d="M915.692308 39.384615h-807.384616C92.553846 39.384615 78.769231 53.169231 78.769231 68.923077v98.461538c0 15.753846 13.784615 29.538462 29.538461 29.538462h807.384616c15.753846 0 29.538462-13.784615 29.538461-29.538462v-98.461538c0-15.753846-13.784615-29.538462-29.538461-29.538462z m-630.153846 236.307693h-177.23077c-15.753846 0-29.538462 13.784615-29.538461 29.538461v59.076923c0 15.753846 13.784615 29.538462 29.538461 29.538462h177.23077c15.753846 0 29.538462-13.784615 29.538461-29.538462v-59.076923c0-15.753846-13.784615-29.538462-29.538461-29.538461z m315.076923 0h-177.23077c-15.753846 0-29.538462 13.784615-29.538461 29.538461v59.076923c0 15.753846 13.784615 29.538462 29.538461 29.538462h177.23077c15.753846 0 29.538462-13.784615 29.538461-29.538462v-59.076923c0-15.753846-13.784615-29.538462-29.538461-29.538461z m315.076923 0h-177.23077c-15.753846 0-29.538462 13.784615-29.538461 29.538461v59.076923c0 15.753846 13.784615 29.538462 29.538461 29.538462h177.23077c15.753846 0 29.538462-13.784615 29.538461-29.538462v-59.076923c0-15.753846-13.784615-29.538462-29.538461-29.538461z m-630.153846 196.923077h-177.23077c-15.753846 0-29.538462 13.784615-29.538461 29.538461v59.076923c0 15.753846 13.784615 29.538462 29.538461 29.538462h177.23077c15.753846 0 29.538462-13.784615 29.538461-29.538462v-59.076923c0-15.753846-13.784615-29.538462-29.538461-29.538461z m315.076923 0h-177.23077c-15.753846 0-29.538462 13.784615-29.538461 29.538461v59.076923c0 15.753846 13.784615 29.538462 29.538461 29.538462h177.23077c15.753846 0 29.538462-13.784615 29.538461-29.538462v-59.076923c0-15.753846-13.784615-29.538462-29.538461-29.538461z m315.076923 0h-177.23077c-15.753846 0-29.538462 13.784615-29.538461 29.538461v59.076923c0 15.753846 13.784615 29.538462 29.538461 29.538462h177.23077c15.753846 0 29.538462-13.784615 29.538461-29.538462v-59.076923c0-15.753846-13.784615-29.538462-29.538461-29.538461z m-630.153846 196.923077h-177.23077c-15.753846 0-29.538462 13.784615-29.538461 29.538461v59.076923c0 15.753846 13.784615 29.538462 29.538461 29.538462h177.23077c15.753846 0 29.538462-13.784615 29.538461-29.538462v-59.076923c0-15.753846-13.784615-29.538462-29.538461-29.538461z m315.076923 0h-177.23077c-15.753846 0-29.538462 13.784615-29.538461 29.538461v59.076923c0 15.753846 13.784615 29.538462 29.538461 29.538462h177.23077c15.753846 0 29.538462-13.784615 29.538461-29.538462v-59.076923c0-15.753846-13.784615-29.538462-29.538461-29.538461z m315.076923 0h-177.23077c-15.753846 0-29.538462 13.784615-29.538461 29.538461v59.076923c0 15.753846 13.784615 29.538462 29.538461 29.538462h177.23077c15.753846 0 29.538462-13.784615 29.538461-29.538462v-59.076923c0-15.753846-13.784615-29.538462-29.538461-29.538461z m-630.153846 196.923076h-177.23077c-15.753846 0-29.538462 13.784615-29.538461 29.538462v59.076923c0 15.753846 13.784615 29.538462 29.538461 29.538462h177.23077c15.753846 0 29.538462-13.784615 29.538461-29.538462v-59.076923c0-15.753846-13.784615-29.538462-29.538461-29.538462z m315.076923 0h-177.23077c-15.753846 0-29.538462 13.784615-29.538461 29.538462v59.076923c0 15.753846 13.784615 29.538462 29.538461 29.538462h177.23077c15.753846 0 29.538462-13.784615 29.538461-29.538462v-59.076923c0-15.753846-13.784615-29.538462-29.538461-29.538462z m315.076923 0h-177.23077c-15.753846 0-29.538462 13.784615-29.538461 29.538462v59.076923c0 15.753846 13.784615 29.538462 29.538461 29.538462h177.23077c15.753846 0 29.538462-13.784615 29.538461-29.538462v-59.076923c0-15.753846-13.784615-29.538462-29.538461-29.538462z" p-id="3025"></path></svg>
