<svg t="1661418682719" class="icon" viewBox="0 0 1024 1024" version="1.1" xmlns="http://www.w3.org/2000/svg" p-id="4097" width="200" height="200"><path d="M788 159.831C756 128 746 128 724.38 128H642s-66 60.923-130 60.923S384 128 384 128h-84.795c-22.575 0-33.205 12.923-53.358 31.831L81.583 323.871c-11.34 11.325-29.583 47.821 0 84.784 0 0 142.44 131.643 156.417 132.883v293.539C238 868.452 286.579 896 320 896h386c33.42 0 82-27.548 82-60.923V541.538c14.145-1.152 154.449-132.883 154.449-132.883 31.551-36.655 23.402-73.771 0-97.142L788 159.831z" p-id="4098"></path></svg>
